<svg xmlns="http://www.w3.org/2000/svg" viewBox="0 0 800 270" width="800" height="270" role="img" aria-label="ibd_adm: fine scale ancestry from IBD sharing palettes">
  <defs>
    <clipPath id="bar"><rect width="29.6" height="120" rx="4"/></clipPath>
  </defs>
  <rect width="800" height="270" rx="22" fill="#f4ece6"/>
  <g transform="translate(66.00,34)" clip-path="url(#bar)"><rect y="51.0" width="29.6" height="69.5" fill="#d9a65e"/><rect y="32.6" width="29.6" height="18.9" fill="#d98a6c"/><rect y="17.7" width="29.6" height="15.4" fill="#b8708a"/><rect y="11.9" width="29.6" height="6.3" fill="#8a6a9c"/><rect y="0.0" width="29.6" height="12.4" fill="#5f77a8"/></g>
  <g transform="translate(99.60,34)" clip-path="url(#bar)"><rect y="46.1" width="29.6" height="74.4" fill="#d9a65e"/><rect y="31.9" width="29.6" height="14.7" fill="#d98a6c"/><rect y="20.1" width="29.6" height="12.3" fill="#b8708a"/><rect y="13.8" width="29.6" height="6.8" fill="#8a6a9c"/><rect y="0.0" width="29.6" height="14.3" fill="#5f77a8"/></g>
  <g transform="translate(133.20,34)" clip-path="url(#bar)"><rect y="54.6" width="29.6" height="65.9" fill="#d9a65e"/><rect y="35.5" width="29.6" height="19.6" fill="#d98a6c"/><rect y="24.6" width="29.6" height="11.4" fill="#b8708a"/><rect y="16.1" width="29.6" height="9.0" fill="#8a6a9c"/><rect y="0.0" width="29.6" height="16.6" fill="#5f77a8"/></g>
  <g transform="translate(166.80,34)" clip-path="url(#bar)"><rect y="63.1" width="29.6" height="57.4" fill="#d9a65e"/><rect y="37.8" width="29.6" height="25.8" fill="#d98a6c"/><rect y="21.1" width="29.6" height="17.2" fill="#b8708a"/><rect y="14.0" width="29.6" height="7.6" fill="#8a6a9c"/><rect y="-0.0" width="29.6" height="14.5" fill="#5f77a8"/></g>
  <g transform="translate(200.40,34)" clip-path="url(#bar)"><rect y="107.5" width="29.6" height="13.0" fill="#d9a65e"/><rect y="40.4" width="29.6" height="67.5" fill="#d98a6c"/><rect y="24.4" width="29.6" height="16.5" fill="#b8708a"/><rect y="12.8" width="29.6" height="12.1" fill="#8a6a9c"/><rect y="0.0" width="29.6" height="13.3" fill="#5f77a8"/></g>
  <g transform="translate(234.00,34)" clip-path="url(#bar)"><rect y="107.8" width="29.6" height="12.7" fill="#d9a65e"/><rect y="45.5" width="29.6" height="62.8" fill="#d98a6c"/><rect y="31.4" width="29.6" height="14.6" fill="#b8708a"/><rect y="17.4" width="29.6" height="14.4" fill="#8a6a9c"/><rect y="0.0" width="29.6" height="17.9" fill="#5f77a8"/></g>
  <g transform="translate(267.60,34)" clip-path="url(#bar)"><rect y="108.5" width="29.6" height="12.0" fill="#d9a65e"/><rect y="34.8" width="29.6" height="74.2" fill="#d98a6c"/><rect y="23.5" width="29.6" height="11.8" fill="#b8708a"/><rect y="11.0" width="29.6" height="12.9" fill="#8a6a9c"/><rect y="0.0" width="29.6" height="11.5" fill="#5f77a8"/></g>
  <g transform="translate(301.20,34)" clip-path="url(#bar)"><rect y="111.5" width="29.6" height="9.0" fill="#d9a65e"/><rect y="35.4" width="29.6" height="76.6" fill="#d98a6c"/><rect y="22.7" width="29.6" height="13.2" fill="#b8708a"/><rect y="11.0" width="29.6" height="12.3" fill="#8a6a9c"/><rect y="-0.0" width="29.6" height="11.5" fill="#5f77a8"/></g>
  <g transform="translate(334.80,34)" clip-path="url(#bar)"><rect y="114.0" width="29.6" height="6.5" fill="#d9a65e"/><rect y="102.6" width="29.6" height="11.9" fill="#d98a6c"/><rect y="28.9" width="29.6" height="74.2" fill="#b8708a"/><rect y="15.8" width="29.6" height="13.6" fill="#8a6a9c"/><rect y="-0.0" width="29.6" height="16.3" fill="#5f77a8"/></g>
  <g transform="translate(368.40,34)" clip-path="url(#bar)"><rect y="114.5" width="29.6" height="6.0" fill="#d9a65e"/><rect y="100.5" width="29.6" height="14.5" fill="#d98a6c"/><rect y="33.3" width="29.6" height="67.7" fill="#b8708a"/><rect y="14.0" width="29.6" height="19.8" fill="#8a6a9c"/><rect y="-0.0" width="29.6" height="14.5" fill="#5f77a8"/></g>
  <g transform="translate(402.00,34)" clip-path="url(#bar)"><rect y="116.3" width="29.6" height="4.2" fill="#d9a65e"/><rect y="107.7" width="29.6" height="9.1" fill="#d98a6c"/><rect y="26.8" width="29.6" height="81.4" fill="#b8708a"/><rect y="13.5" width="29.6" height="13.9" fill="#8a6a9c"/><rect y="-0.0" width="29.6" height="14.0" fill="#5f77a8"/></g>
  <g transform="translate(435.60,34)" clip-path="url(#bar)"><rect y="114.5" width="29.6" height="6.0" fill="#d9a65e"/><rect y="105.8" width="29.6" height="9.2" fill="#d98a6c"/><rect y="27.8" width="29.6" height="78.5" fill="#b8708a"/><rect y="10.1" width="29.6" height="18.2" fill="#8a6a9c"/><rect y="-0.0" width="29.6" height="10.6" fill="#5f77a8"/></g>
  <g transform="translate(469.20,34)" clip-path="url(#bar)"><rect y="111.1" width="29.6" height="9.4" fill="#d9a65e"/><rect y="102.6" width="29.6" height="9.0" fill="#d98a6c"/><rect y="84.4" width="29.6" height="18.7" fill="#b8708a"/><rect y="22.8" width="29.6" height="62.1" fill="#8a6a9c"/><rect y="-0.0" width="29.6" height="23.3" fill="#5f77a8"/></g>
  <g transform="translate(502.80,34)" clip-path="url(#bar)"><rect y="109.5" width="29.6" height="11.0" fill="#d9a65e"/><rect y="101.9" width="29.6" height="8.1" fill="#d98a6c"/><rect y="90.9" width="29.6" height="11.5" fill="#b8708a"/><rect y="25.1" width="29.6" height="66.4" fill="#8a6a9c"/><rect y="0.0" width="29.6" height="25.6" fill="#5f77a8"/></g>
  <g transform="translate(536.40,34)" clip-path="url(#bar)"><rect y="107.4" width="29.6" height="13.1" fill="#d9a65e"/><rect y="98.0" width="29.6" height="9.9" fill="#d98a6c"/><rect y="86.1" width="29.6" height="12.4" fill="#b8708a"/><rect y="23.7" width="29.6" height="62.9" fill="#8a6a9c"/><rect y="-0.0" width="29.6" height="24.2" fill="#5f77a8"/></g>
  <g transform="translate(570.00,34)" clip-path="url(#bar)"><rect y="105.1" width="29.6" height="15.4" fill="#d9a65e"/><rect y="96.6" width="29.6" height="9.0" fill="#d98a6c"/><rect y="80.9" width="29.6" height="16.2" fill="#b8708a"/><rect y="29.6" width="29.6" height="51.7" fill="#8a6a9c"/><rect y="0.0" width="29.6" height="30.1" fill="#5f77a8"/></g>
  <g transform="translate(603.60,34)" clip-path="url(#bar)"><rect y="103.9" width="29.6" height="16.6" fill="#d9a65e"/><rect y="96.4" width="29.6" height="7.9" fill="#d98a6c"/><rect y="90.9" width="29.6" height="6.1" fill="#b8708a"/><rect y="67.6" width="29.6" height="23.7" fill="#8a6a9c"/><rect y="-0.0" width="29.6" height="68.1" fill="#5f77a8"/></g>
  <g transform="translate(637.20,34)" clip-path="url(#bar)"><rect y="110.3" width="29.6" height="10.2" fill="#d9a65e"/><rect y="104.1" width="29.6" height="6.8" fill="#d98a6c"/><rect y="98.5" width="29.6" height="6.1" fill="#b8708a"/><rect y="86.7" width="29.6" height="12.3" fill="#8a6a9c"/><rect y="0.0" width="29.6" height="87.2" fill="#5f77a8"/></g>
  <g transform="translate(670.80,34)" clip-path="url(#bar)"><rect y="108.8" width="29.6" height="11.7" fill="#d9a65e"/><rect y="103.1" width="29.6" height="6.3" fill="#d98a6c"/><rect y="95.2" width="29.6" height="8.4" fill="#b8708a"/><rect y="77.0" width="29.6" height="18.7" fill="#8a6a9c"/><rect y="-0.0" width="29.6" height="77.5" fill="#5f77a8"/></g>
  <g transform="translate(704.40,34)" clip-path="url(#bar)"><rect y="110.9" width="29.6" height="9.6" fill="#d9a65e"/><rect y="106.3" width="29.6" height="5.1" fill="#d98a6c"/><rect y="99.9" width="29.6" height="6.9" fill="#b8708a"/><rect y="84.3" width="29.6" height="16.0" fill="#8a6a9c"/><rect y="-0.0" width="29.6" height="84.8" fill="#5f77a8"/></g>
  <text x="66" y="216" font-family="ui-monospace, SFMono-Regular, Menlo, Consolas, monospace" font-size="44" font-weight="700" fill="#3a2c3a">ibd<tspan fill="#d98a6c">_</tspan>adm</text>
  <text x="66" y="242" font-family="ui-monospace, SFMono-Regular, Menlo, Consolas, monospace" font-size="13" fill="#8f8088">fine scale ancestry from IBD sharing palettes</text>
</svg>
